[center]
[img]http://img593.imageshack.us/img593/3746/01epa.jpg[/img]

A Christmas Wish 2011 HDTV XviD-NoGRP
 
http://www.imdb.com/title/tt1577038/

General
Complete name                    : A.Christmas.Wish.2011.HDTV.XviD-NoGRP.avi
Format                         : AVI
Format/Info                      : Audio Video Interleave
File size                        : 700 MiB
Duration                       : 1h 23mn
Overall bit rate               : 1 173 Kbps

Video
ID                             : 0
Format                         : MPEG-4 Visual
Format profile                 : Advanced Simple@L5
Format settings, BVOP            : 2
Format settings, QPel            : No
Format settings, GMC           : No warppoints
Format settings, Matrix          : Default (H.263)
Codec ID                       : XVID
Codec ID/Hint                    : XviD
Duration                       : 1h 23mn
Bit rate                       : 1 031 Kbps
Width                            : 624 pixels
Height                         : 352 pixels
Display aspect ratio           : 16:9
Frame rate                     : 29.970 fps
Color space                      : YUV
Chroma subsampling             : 4:2:0
Bit depth                        : 8 bits
Scan type                        : Progressive
Compression mode               : Lossy
Bits/(Pixel*Frame)             : 0.157
Stream size                      : 615 MiB (88%)
Writing library                  : XviD 63

Audio
ID                             : 1
Format                         : MPEG Audio
Format version                 : Version 1
Format profile                 : Layer 3
Codec ID                       : 55
Codec ID/Hint                    : MP3
Duration                       : 1h 23mn
Bit rate mode                    : Constant
Bit rate                       : 128 Kbps
Channel(s)                     : 2 channels
Sampling rate                    : 48.0 KHz
Compression mode               : Lossy
Stream size                      : 76.3 MiB (11%)
Alignment                        : Split accross interleaves
Interleave, duration           : 24 ms (0.72 video frame)

Cast

Kristy Swanson ... Martha Evans
Aline Andrade ... Clarice
Danielle Chuchran ... Jeanie Bullington
K.C. Clyde ... Joe Hopkins
Lilee Clyde ... Katie
Kirstin Dorn ... Mel Evans

[img]http://img39.imageshack.us/img39/7163/2lpsv.png[/img]
[img]http://img515.imageshack.us/img515/1209/hadjc.png[/img]
[img]http://img822.imageshack.us/img822/6703/jaqjq.png[/img][/center]